<?xml version="1.0" encoding="UTF-8"?> <svg xmlns="http://www.w3.org/2000/svg" xmlns:xlink="http://www.w3.org/1999/xlink" width="144.667" height="54.25" viewBox="0 0 144.667 54.25"> <defs> <style>.a{fill:#2c2a29;}.b{clip-path:url(#a);}</style> <clipPath id="a"> <rect class="a" width="144.667" height="54.25" transform="translate(118 49)"></rect> </clipPath> </defs> <g class="b" transform="translate(-118 -49)"> <g transform="translate(118 50.553)"> <path d="M55.534,37.221A9.761,9.761,0,0,1,45.809,27.5V20.413a9.725,9.725,0,1,1,19.449,0v7.143a9.71,9.71,0,0,1-9.725,9.664m0-20.83a4.022,4.022,0,0,0-4.022,4.022v7.143a4.022,4.022,0,1,0,8.044,0V20.413a4.022,4.022,0,0,0-4.022-4.022" transform="translate(-4.39 -1.024)"></path> <path d="M85.793,37.227a2.818,2.818,0,0,1-2.821-2.821V20.54a4.142,4.142,0,1,0-8.284,0V34.406a2.821,2.821,0,0,1-5.643,0V20.54a9.785,9.785,0,0,1,19.569,0V34.406a2.818,2.818,0,0,1-2.821,2.821" transform="translate(-6.617 -1.031)"></path> <path d="M39.979,7.143a7.173,7.173,0,0,0-14.347,0V24.611a2.881,2.881,0,0,0,5.763,0V7.143a1.321,1.321,0,1,1,2.641,0V24.791a5.611,5.611,0,0,1-5.583,5.583h0a5.611,5.611,0,0,1-5.583-5.583V4.082A3.4,3.4,0,0,0,22.691,3,2.927,2.927,0,0,0,19.809.36a2.882,2.882,0,0,0-2.881,2.881v21.55a5.583,5.583,0,0,1-11.165,0V3.3A2.881,2.881,0,0,0,0,3.3v21.55A11.4,11.4,0,0,0,11.405,36.257h0a11.356,11.356,0,0,0,8.584-3.9,11.356,11.356,0,0,0,8.584,3.9h0A11.4,11.4,0,0,0,39.979,24.852V7.143Z" transform="translate(0 0)"></path> <path d="M111.624,2.821a2.821,2.821,0,0,0-5.643,0v7.984a9.632,9.632,0,0,0-13.566,8.824v7.083a9.6,9.6,0,1,0,19.209,0v-.9h0Zm-9.664,27.733A4,4,0,0,1,98,26.592V19.569a3.962,3.962,0,0,1,7.924,0v6.183h0v.84A3.92,3.92,0,0,1,101.959,30.554Z" transform="translate(-8.856 0)"></path> <path d="M131.827,10.954a2.929,2.929,0,0,0-2.281,1.141,9.878,9.878,0,0,0-4.562-1.141,9.658,9.658,0,0,0-9.664,9.664V27.7a9.658,9.658,0,0,0,9.664,9.664,9.516,9.516,0,0,0,4.562-1.141,2.761,2.761,0,0,0,2.281,1.141,2.818,2.818,0,0,0,2.821-2.821V13.836A2.8,2.8,0,0,0,131.827,10.954Zm-2.881,16.688a3.962,3.962,0,0,1-7.924,0V20.619a3.962,3.962,0,1,1,7.924,0Z" transform="translate(-11.051 -1.05)"></path> <path d="M155.064,11.021a2.818,2.818,0,0,0-2.821,2.821V27.528a4.022,4.022,0,1,1-8.044,0V13.842a2.821,2.821,0,1,0-5.643,0V27.588a9.761,9.761,0,0,0,9.725,9.725,8.988,8.988,0,0,0,4.022-.9V49.379a2.821,2.821,0,1,0,5.643,0V13.842A2.91,2.91,0,0,0,155.064,11.021Z" transform="translate(-13.278 -1.056)"></path> <g transform="translate(41.299 0)"> <path d="M50.9,2.521A2.562,2.562,0,0,1,48.318,5.1a2.613,2.613,0,0,1-2.641-2.581A2.564,2.564,0,0,1,48.318,0,2.512,2.512,0,0,1,50.9,2.521Zm-4.562,0a1.974,1.974,0,0,0,1.981,2.041,1.926,1.926,0,0,0,1.921-2.041A1.963,1.963,0,0,0,48.318.48,2.05,2.05,0,0,0,46.337,2.521ZM47.9,3.842h-.6V1.321a4.271,4.271,0,0,1,.96-.06,1.55,1.55,0,0,1,.9.18.761.761,0,0,1,.24.54c0,.3-.24.48-.54.6v.06a.99.99,0,0,1,.48.6,2.326,2.326,0,0,0,.18.66h-.66a2.433,2.433,0,0,1-.18-.6c-.06-.3-.18-.42-.54-.42h-.3v.96Zm.06-1.441h.24c.3,0,.6-.12.6-.36s-.18-.36-.54-.36c-.18,0-.24,0-.3.06Z" transform="translate(-45.676)"></path> </g> </g> </g> </svg> 